<svg xmlns="http://www.w3.org/2000/svg" xmlns:xlink="http://www.w3.org/1999/xlink" width="194.583" height="204.554" viewBox="0 0 194.583 204.554">
  <defs>
    <linearGradient id="linear-gradient" x1="0.096" y1="0.02" x2="0.647" y2="0.806" gradientUnits="objectBoundingBox">
      <stop offset="0" stop-color="#1aa5b5"/>
      <stop offset="0.028" stop-color="#1aa5b5"/>
      <stop offset="1" stop-color="#2e1a6f"/>
    </linearGradient>
  </defs>
  <g id="Group_23490" data-name="Group 23490" transform="translate(-1465.417 -1695.993)">
    <path id="Path_52511" data-name="Path 52511" d="M154.925,83.189v25.74A45.392,45.392,0,0,1,141.652,141l-18.191,18.191a45.349,45.349,0,0,1-32.111,13.3H65.639a45.374,45.374,0,0,1-32.111-13.3L15.366,141a45.376,45.376,0,0,1-13.3-32.1V83.189a45.4,45.4,0,0,1,13.3-32.1L33.542,32.916a45.387,45.387,0,0,1,32.1-13.287H91.35a45.445,45.445,0,0,1,32.111,13.287l18.176,18.176a45.447,45.447,0,0,1,13.287,32.1" transform="translate(1505.075 1728.057)" opacity="0.643" fill="url(#linear-gradient)"/>
    <path id="Path_52512" data-name="Path 52512" d="M67.757,46.944V58.006a19.507,19.507,0,0,1-5.7,13.781l-7.818,7.818a19.489,19.489,0,0,1-13.8,5.716H29.386a19.5,19.5,0,0,1-13.8-5.716L7.78,71.788A19.5,19.5,0,0,1,2.064,57.994V46.944A19.511,19.511,0,0,1,7.78,33.151l7.811-7.811a19.505,19.505,0,0,1,13.794-5.71h11.05a19.53,19.53,0,0,1,13.8,5.71l7.811,7.811a19.531,19.531,0,0,1,5.71,13.794" transform="translate(1463.353 1676.364)" opacity="0.155" fill="url(#linear-gradient)"/>
  </g>
</svg>
