<svg xmlns="http://www.w3.org/2000/svg" xmlns:xlink="http://www.w3.org/1999/xlink" width="172.5" height="172.5" viewBox="0 0 172.5 172.5">
  <defs>
    <linearGradient id="linear-gradient" x1="0.096" y1="0.02" x2="0.647" y2="0.806" gradientUnits="objectBoundingBox">
      <stop offset="0" stop-color="#1aa5b5"/>
      <stop offset="0.028" stop-color="#1aa5b5"/>
      <stop offset="1" stop-color="#2e1a6f"/>
    </linearGradient>
  </defs>
  <path id="Path_52516" data-name="Path 52516" d="M174.564,91.355V120.4a51.224,51.224,0,0,1-14.978,36.188l-20.528,20.528a51.175,51.175,0,0,1-36.236,15.011H73.806A51.2,51.2,0,0,1,37.57,177.118l-20.5-20.528A51.205,51.205,0,0,1,2.064,120.37V91.355a51.234,51.234,0,0,1,15.011-36.22L37.586,34.623a51.218,51.218,0,0,1,36.22-14.994h29.015a51.284,51.284,0,0,1,36.236,14.994l20.512,20.512a51.286,51.286,0,0,1,14.994,36.22" transform="translate(-2.064 -19.629)" opacity="0.794" fill="url(#linear-gradient)"/>
</svg>
