<svg xmlns="http://www.w3.org/2000/svg" xmlns:xlink="http://www.w3.org/1999/xlink" width="34.846" height="34.846" viewBox="0 0 34.846 34.846">
  <defs>
    <linearGradient id="linear-gradient" x1="0.096" y1="0.02" x2="0.647" y2="0.806" gradientUnits="objectBoundingBox">
      <stop offset="0" stop-color="#1aa5b5"/>
      <stop offset="0.028" stop-color="#1aa5b5"/>
      <stop offset="1" stop-color="#2e1a6f"/>
    </linearGradient>
  </defs>
  <path id="Path_52515" data-name="Path 52515" d="M36.91,34.118v5.868a10.347,10.347,0,0,1-3.026,7.31l-4.147,4.147a10.338,10.338,0,0,1-7.32,3.032H16.556a10.343,10.343,0,0,1-7.32-3.032L5.1,47.3a10.344,10.344,0,0,1-3.032-7.317V34.118A10.349,10.349,0,0,1,5.1,26.8L9.24,22.658a10.346,10.346,0,0,1,7.317-3.029h5.861a10.36,10.36,0,0,1,7.32,3.029L33.881,26.8a10.36,10.36,0,0,1,3.029,7.317" transform="translate(-2.064 -19.629)" opacity="0.214" fill="url(#linear-gradient)"/>
</svg>
