<svg xmlns="http://www.w3.org/2000/svg" xmlns:xlink="http://www.w3.org/1999/xlink" width="325.395" height="357.706" viewBox="0 0 325.395 357.706">
  <defs>
    <linearGradient id="linear-gradient" x1="0.096" y1="0.02" x2="0.647" y2="0.806" gradientUnits="objectBoundingBox">
      <stop offset="0" stop-color="#1aa5b5"/>
      <stop offset="0.028" stop-color="#1aa5b5"/>
      <stop offset="1" stop-color="#2e1a6f"/>
    </linearGradient>
  </defs>
  <g id="Group_23050" data-name="Group 23050" transform="translate(-1422 -233.889)">
    <path id="Path_52505" data-name="Path 52505" d="M327.459,154.93v54.794a96.625,96.625,0,0,1-28.254,68.263l-38.723,38.723a96.534,96.534,0,0,1-68.354,28.315H137.4a96.587,96.587,0,0,1-68.354-28.315L30.379,277.986A96.591,96.591,0,0,1,2.064,209.662V154.93A96.645,96.645,0,0,1,30.379,86.606L69.072,47.914A96.615,96.615,0,0,1,137.4,19.629h54.732a96.739,96.739,0,0,1,68.354,28.285l38.692,38.692a96.744,96.744,0,0,1,28.284,68.324" transform="translate(1419.936 246.571)" opacity="0.712" fill="url(#linear-gradient)"/>
    <path id="Path_52507" data-name="Path 52507" d="M66.685,46.5V57.38a19.189,19.189,0,0,1-5.611,13.556l-7.69,7.69A19.171,19.171,0,0,1,39.809,84.25H28.94a19.181,19.181,0,0,1-13.575-5.623l-7.678-7.69A19.182,19.182,0,0,1,2.064,57.368V46.5A19.193,19.193,0,0,1,7.687,32.93l7.684-7.684A19.187,19.187,0,0,1,28.94,19.629H39.809a19.212,19.212,0,0,1,13.575,5.617l7.684,7.684A19.213,19.213,0,0,1,66.685,46.5" transform="translate(1419.936 214.26)" opacity="0.268" fill="url(#linear-gradient)"/>
  </g>
</svg>
