<svg id="Group_100" data-name="Group 100" xmlns="http://www.w3.org/2000/svg" xmlns:xlink="http://www.w3.org/1999/xlink" width="36.08" height="54.118" viewBox="0 0 36.08 54.118">
  <defs>
    <clipPath id="clip-path">
      <rect id="Rectangle_138" data-name="Rectangle 138" width="36.08" height="54.118" fill="#fff"/>
    </clipPath>
  </defs>
  <g id="Group_99" data-name="Group 99" clip-path="url(#clip-path)">
    <path id="Path_1213" data-name="Path 1213" d="M30.071,4.594A18.04,18.04,0,0,0,.1,16.127,17.284,17.284,0,0,0,4.479,29.606,18.876,18.876,0,0,1,9.02,42.124v.4a1.288,1.288,0,0,0,1.289,1.289v3.866A1.288,1.288,0,0,0,11.6,48.963v3.866a1.288,1.288,0,0,0,1.289,1.289H23.194a1.288,1.288,0,0,0,1.289-1.289V48.963a1.288,1.288,0,0,0,1.289-1.289V43.809A1.288,1.288,0,0,0,27.06,42.52V42.13a20.34,20.34,0,0,1,4.914-12.966A17.13,17.13,0,0,0,36.08,18.037,18.068,18.068,0,0,0,30.07,4.593ZM21.906,51.541H14.175V48.963h7.731Zm1.289-5.154H12.886V43.809H23.195Zm6.791-18.86A23.027,23.027,0,0,0,24.5,41.231H11.581A21.336,21.336,0,0,0,6.416,27.9,14.586,14.586,0,0,1,2.663,16.39,15.464,15.464,0,0,1,33.5,18.037a14.431,14.431,0,0,1-3.518,9.489" transform="translate(0 0)" fill="#fff"/>
    <path id="Path_1214" data-name="Path 1214" d="M77.732,61.234A7.739,7.739,0,0,0,70,68.965h2.577a5.154,5.154,0,1,1,5.154,5.154,1.288,1.288,0,0,0-1.289,1.289v9.02h2.577V76.59a7.732,7.732,0,0,0-1.289-15.356" transform="translate(-59.692 -52.216)" fill="#fff"/>
    <rect id="Rectangle_137" data-name="Rectangle 137" width="2.577" height="2.577" transform="translate(16.752 34.789)" fill="#fff"/>
  </g>
</svg>
