<svg xmlns="http://www.w3.org/2000/svg" xmlns:xlink="http://www.w3.org/1999/xlink" width="15.485" height="15.485" viewBox="0 0 15.485 15.485">
  <defs>
    <linearGradient id="linear-gradient" x1="0.5" x2="0.5" y2="1" gradientUnits="objectBoundingBox">
      <stop offset="0" stop-color="#1aa5b5"/>
      <stop offset="0.028" stop-color="#1aa5b5"/>
      <stop offset="1" stop-color="#2e1a6f"/>
    </linearGradient>
  </defs>
  <path id="Icon_awesome-phone-alt" data-name="Icon awesome-phone-alt" d="M15.043,10.942,11.656,9.491a.726.726,0,0,0-.847.209l-1.5,1.833A11.21,11.21,0,0,1,3.95,6.173l1.833-1.5a.724.724,0,0,0,.209-.847L4.54.439a.731.731,0,0,0-.832-.42L.563.745A.726.726,0,0,0,0,1.452,14.032,14.032,0,0,0,14.033,15.485a.726.726,0,0,0,.708-.563l.726-3.145a.735.735,0,0,0-.424-.835Z" transform="translate(0 0)" fill="url(#linear-gradient)"/>
</svg>
