<svg xmlns="http://www.w3.org/2000/svg" xmlns:xlink="http://www.w3.org/1999/xlink" width="723.544" height="696.546" viewBox="0 0 723.544 696.546">
  <defs>
    <clipPath id="clip-path">
      <rect id="Rectangle_5495" data-name="Rectangle 5495" width="723.544" height="696.546" fill="#9de9ff"/>
    </clipPath>
  </defs>
  <g id="Group_21085" data-name="Group 21085" opacity="0.201">
    <g id="Group_21084" data-name="Group 21084" clip-path="url(#clip-path)">
      <path id="Path_91405" data-name="Path 91405" d="M568.293,206.739c2.081-39.11-6.036-76.452-17.621-113.313-2.99-9.51-6.007-10.833-14.165-3.662a554.835,554.835,0,0,1-48.394,38.609c-48.1,33.573-100.663,59.523-155.864,78.517-71.109,24.471-143.621,44.946-215.708,66.557-9.69,2.906-15.952,6.947-17.87,16.993-4.2,22.037-10.27,43.87-12.578,66.093-4.512,43.412,1.547,85.292,28.111,121.7,33.91,46.472,83.081,63.721,137.989,64.078,83.144.542,154.974-30.935,213.739-88.159,69.251-67.433,101.452-151.478,102.36-247.415" transform="translate(154.926 154.228)" fill="#9de9ff"/>
      <path id="Path_91406" data-name="Path 91406" d="M535.84,47.52c-60.666-41.613-180.412-68.153-291.8-26.742C95.385,76.044,14.281,187,1.225,341.264c-9.014,106.5,32.165,199.9,109.139,275.939C82.137,478.86,119.989,355.866,201.8,245.9,284.135,135.235,394.672,66.669,535.84,47.52" transform="translate(0 0)" fill="#9de9ff"/>
      <path id="Path_91407" data-name="Path 91407" d="M430.712,101.886c.258-38.865-15.808-61.24-53.754-69.609-15.686-3.459-32.866-3.378-48.934-1.416-55.049,6.725-94.986,38.947-127.756,80.5C149.767,175.4,122,250.593,96.486,326.7c-2.78,8.29-.818,11.277,8.434,8.751,18.586-5.078,37.471-9.1,56.005-14.343,72.868-20.627,143.626-46.127,203.1-94.785,39.275-32.132,66.153-71.517,66.685-124.438" transform="translate(174.285 53.411)" fill="#9de9ff"/>
      <path id="Path_91408" data-name="Path 91408" d="M568.293,206.739c-.908,95.937-33.109,179.981-102.36,247.415-58.766,57.224-130.6,88.7-213.739,88.159-54.908-.357-104.079-17.606-137.989-64.078-26.564-36.409-32.623-78.289-28.111-121.7,2.308-22.223,8.375-44.055,12.578-66.093,1.918-10.047,8.18-14.088,17.87-16.993,72.087-21.611,144.6-42.085,215.708-66.557,55.2-18.994,107.762-44.944,155.864-78.517a554.831,554.831,0,0,0,48.394-38.609c8.157-7.172,11.175-5.848,14.165,3.662,11.585,36.861,19.7,74.2,17.621,113.313" transform="translate(154.926 154.228)" fill="#9de9ff"/>
      <path id="Path_91409" data-name="Path 91409" d="M535.84,47.52C394.672,66.669,284.135,135.235,201.8,245.9,119.989,355.866,82.137,478.86,110.364,617.2,33.389,541.168-7.789,447.765,1.225,341.264,14.281,187,95.385,76.044,244.043,20.779,355.428-20.633,475.174,5.907,535.84,47.52" transform="translate(0 0)" fill="#9de9ff"/>
      <path id="Path_91410" data-name="Path 91410" d="M430.712,101.886c-.532,52.922-27.41,92.306-66.685,124.438-59.475,48.659-130.234,74.158-203.1,94.785-18.534,5.247-37.419,9.265-56.005,14.343-9.251,2.526-11.214-.461-8.434-8.751C122,250.593,149.767,175.4,200.268,111.359c32.769-41.551,72.707-73.773,127.756-80.5,16.068-1.961,33.248-2.043,48.934,1.416,37.946,8.369,54.011,30.744,53.754,69.609" transform="translate(174.285 53.411)" fill="#9de9ff"/>
    </g>
  </g>
</svg>