<svg xmlns="http://www.w3.org/2000/svg" xmlns:xlink="http://www.w3.org/1999/xlink" width="251.117" height="243.313" viewBox="0 0 251.117 243.313">
  <defs>
    <clipPath id="clip-path">
      <rect id="Rectangle_162" data-name="Rectangle 162" width="251.117" height="243.313" fill="#aaacd3"/>
    </clipPath>
  </defs>
  <g id="Group_2600" data-name="Group 2600" opacity="0.1">
    <g id="Group_2449" data-name="Group 2449" clip-path="url(#clip-path)">
      <path id="Path_1872" data-name="Path 1872" d="M252.56,127.655c.722-13.662-2.095-26.706-6.116-39.582-1.038-3.322-2.085-3.784-4.916-1.279a192.774,192.774,0,0,1-16.8,13.487,217.834,217.834,0,0,1-54.1,27.427c-24.679,8.548-49.846,15.7-74.865,23.249-3.363,1.015-5.537,2.427-6.2,5.936-1.459,7.7-3.564,15.324-4.365,23.087-1.566,15.164.537,29.794,9.756,42.512,11.769,16.233,28.835,22.259,47.891,22.383,28.856.189,53.786-10.806,74.182-30.8,24.034-23.555,35.21-52.913,35.526-86.425" transform="translate(-1.556 -1.564)" fill="#aaacd3"/>
      <path id="Path_1873" data-name="Path 1873" d="M185.972,16.6C164.916,2.063,123.357-7.207,84.7,7.258,33.1,26.563,4.956,65.322.425,119.208-2.7,156.41,11.588,189.037,38.3,215.6c-9.8-48.325,3.341-91.289,31.735-129.7,28.575-38.657,66.938-62.608,115.933-69.3" transform="translate(0 0)" fill="#aaacd3"/>
      <path id="Path_1874" data-name="Path 1874" d="M211.724,54.789c.089-13.576-5.486-21.392-18.656-24.315a51.091,51.091,0,0,0-16.983-.495c-19.106,2.349-32.966,13.6-44.34,28.119-17.527,22.371-27.164,48.636-36.019,75.222-.965,2.9-.284,3.939,2.927,3.057,6.45-1.774,13-3.178,19.437-5.01,25.29-7.205,49.848-16.113,70.49-33.11,13.631-11.224,22.96-24.982,23.144-43.468" transform="translate(-1.75 -0.542)" fill="#aaacd3"/>
      <path id="Path_1875" data-name="Path 1875" d="M252.56,127.655c-.315,33.512-11.491,62.87-35.526,86.425-20.4,19.989-45.325,30.985-74.182,30.8-19.057-.125-36.122-6.15-47.891-22.383-9.22-12.718-11.322-27.348-9.756-42.512.8-7.763,2.907-15.389,4.365-23.087.666-3.509,2.839-4.921,6.2-5.936,25.019-7.549,50.185-14.7,74.865-23.249a217.834,217.834,0,0,0,54.1-27.427,192.774,192.774,0,0,0,16.8-13.487c2.831-2.505,3.878-2.043,4.916,1.279,4.021,12.876,6.838,25.92,6.116,39.582" transform="translate(-1.556 -1.564)" fill="#aaacd3"/>
      <path id="Path_1876" data-name="Path 1876" d="M185.972,16.6c-48.995,6.689-87.358,30.64-115.933,69.3C41.644,124.309,28.507,167.272,38.3,215.6,11.588,189.037-2.7,156.41.425,119.208,4.956,65.322,33.1,26.563,84.7,7.258,123.357-7.207,164.916,2.063,185.972,16.6" transform="translate(0 0)" fill="#aaacd3"/>
      <path id="Path_1877" data-name="Path 1877" d="M211.724,54.789c-.184,18.486-9.513,32.244-23.144,43.468-20.642,17-45.2,25.9-70.49,33.11-6.433,1.833-12.987,3.236-19.437,5.01-3.211.883-3.892-.161-2.927-3.057,8.855-26.586,18.492-52.851,36.019-75.222,11.373-14.514,25.234-25.77,44.34-28.119a51.091,51.091,0,0,1,16.983.495c13.17,2.923,18.745,10.739,18.656,24.315" transform="translate(-1.75 -0.542)" fill="#aaacd3"/>
    </g>
  </g>
</svg>
