<svg xmlns="http://www.w3.org/2000/svg" width="45.921" height="45.921" viewBox="0 0 45.921 45.921">
  <path id="Path_1929" data-name="Path 1929" d="M130.156,0h0a22.961,22.961,0,0,0-22.961,22.961h0A22.961,22.961,0,1,0,130.156,0m-6.042,33.227h-4.744V18.955h4.744Zm-2.372-16.22h-.031a2.71,2.71,0,1,1,.031,0m19.481,16.22h-4.745V25.591c0-1.918-.685-3.227-2.4-3.227A2.594,2.594,0,0,0,131.64,24.1a3.253,3.253,0,0,0-.158,1.157v7.971h-4.745s.063-12.933,0-14.272h4.745v2.023a4.714,4.714,0,0,1,4.277-2.358c3.123,0,5.463,2.04,5.463,6.423Z" transform="translate(-107.194)" fill="#27315a" opacity="0.995"/>
</svg>
