<?xml version="1.0" standalone="no"?>
<!DOCTYPE svg PUBLIC "-//W3C//DTD SVG 20010904//EN"
 "http://www.w3.org/TR/2001/REC-SVG-20010904/DTD/svg10.dtd">
<svg version="1.0" xmlns="http://www.w3.org/2000/svg"
 width="512.000000pt" height="512.000000pt" viewBox="0 0 512.000000 512.000000"
 preserveAspectRatio="xMidYMid meet">
<metadata>
Created by potrace 1.16, written by Peter Selinger 2001-2019
</metadata>
<g transform="translate(0.000000,512.000000) scale(0.100000,-0.100000)"
fill="#fff" stroke="none">
<path d="M2415 5024 c-212 -30 -366 -74 -506 -144 -492 -247 -794 -710 -825
-1265 -29 -520 329 -1360 1054 -2470 125 -192 336 -495 368 -530 32 -34 77
-33 111 3 50 54 270 361 429 598 453 679 766 1296 903 1779 114 407 118 707
11 1028 -167 502 -588 873 -1108 978 -93 19 -366 33 -437 23z m415 -173 c248
-56 457 -166 633 -330 243 -229 384 -517 418 -857 52 -505 -268 -1302 -919
-2294 -142 -216 -391 -570 -401 -570 -9 1 -271 388 -393 580 -514 810 -822
1465 -914 1945 -24 122 -24 339 0 460 52 266 163 483 343 675 209 222 490 367
795 410 98 14 340 3 438 -19z"/>
<path d="M2375 4383 c-334 -71 -597 -351 -656 -698 -16 -94 -6 -270 21 -365
131 -461 623 -725 1080 -578 270 86 482 306 560 578 28 97 37 264 20 367 -55
345 -324 628 -662 697 -96 20 -269 20 -363 -1z m344 -149 c305 -74 523 -337
538 -649 7 -132 -13 -222 -73 -345 -39 -79 -62 -109 -133 -180 -144 -143 -292
-205 -491 -205 -199 0 -347 62 -491 205 -71 71 -94 101 -133 180 -60 123 -80
214 -73 345 8 160 60 293 162 418 84 103 237 199 372 231 80 20 242 20 322 0z"/>
<path d="M3215 1055 c-30 -29 -32 -64 -6 -97 17 -21 34 -27 108 -37 251 -34
519 -105 635 -168 67 -36 105 -79 92 -101 -99 -158 -778 -292 -1484 -292 -706
0 -1385 134 -1484 292 -8 14 -5 23 18 47 76 79 289 152 606 206 109 19 130 33
130 85 0 37 -17 61 -53 73 -40 15 -424 -69 -565 -123 -146 -56 -236 -121 -272
-195 -51 -104 3 -214 142 -292 308 -173 1092 -274 1803 -233 638 37 1087 146
1245 302 56 55 76 108 66 172 -27 165 -296 289 -796 366 -158 25 -156 25 -185
-5z"/>
</g>
</svg>
