<?xml version="1.0" encoding="utf-8"?>
<!-- Generator: Adobe Illustrator 21.1.0, SVG Export Plug-In . SVG Version: 6.00 Build 0)  -->
<svg version="1.1" id="Layer_1" xmlns="http://www.w3.org/2000/svg" xmlns:xlink="http://www.w3.org/1999/xlink" x="0px" y="0px"
	 viewBox="0 0 315.5 104.8" style="enable-background:new 0 0 315.5 104.8;" xml:space="preserve">
<style type="text/css">
	.st0{fill:#FFFFFF;}
</style>
<path class="st0" d="M0,0h104.5v30.5H69.4v74.3H35.1V30.5H0V0z M315.5,104.8H277l-6.7-20.3h-35.9l-7.5,20.3H189L227.5,0H277
	L315.5,104.8z M260.3,39.2h3.5v-3.5l-3.5,0V39.2z M255.4,39.2h3.5v-3.5l-3.5,0V39.2z M255.4,44.1l3.5,0v-3.5h-3.5V44.1z M240.8,44.1
	h3.5v-3.5h-3.5V44.1z M234.5,44.1l0-3.5H231v3.5H234.5z M234.5,39.2l0-3.5H231v3.5H234.5z M239.4,45.5h-3.5V49h3.5V45.5z
	 M239.4,40.6h-3.5v3.5l3.5,0V40.6z M239.4,35.7h-3.5v3.5l3.5,0V35.7z M239.4,30.8h-3.5v3.5h3.5V30.8z M244.3,50.3h-3.5v3.5h3.5V50.3
	z M244.3,49l0-3.5h-3.5V49H244.3z M244.3,35.7l-3.5,0v3.5h3.5L244.3,35.7z M244.3,30.8h-3.5v3.5h3.5V30.8z M249.2,55.2h-3.5v3.5h3.5
	V55.2z M249.2,50.3h-3.5v3.5h3.5V50.3z M249.2,45.5h-3.5V49h3.5V45.5z M249.2,40.6h-3.5v3.5h3.5V40.6z M249.2,35.7h-3.5v3.5h3.5
	V35.7z M254,60.1l-3.5,0v3.5h3.5V60.1z M254,55.2l-3.5,0v3.5h3.5V55.2z M254,50.3h-3.5v3.5h3.5V50.3z M254,45.5h-3.5l0,3.5h3.5V45.5
	z M254,40.6h-3.5l0,3.5l3.5,0V40.6z M258.9,55.2l-3.5,0v3.5h3.5V55.2z M258.9,50.3h-3.5v3.5l3.5,0V50.3z M258.9,49l0-3.5h-3.5V49
	H258.9z M263.8,50.3h-3.5v3.5h3.5L263.8,50.3z M263.8,45.5h-3.5V49h3.5L263.8,45.5z M263.8,40.6h-3.5v3.5h3.5L263.8,40.6z
	 M263.8,30.8h-3.5v3.5h3.5V30.8z M268.7,45.5h-3.5V49h3.5V45.5z M268.7,40.6h-3.5l0,3.5l3.5,0V40.6z M268.7,35.7l-3.5,0v3.5l3.5,0
	L268.7,35.7z M268.7,30.8h-3.5l0,3.5h3.5V30.8z M273.5,40.6H270v3.5l3.5,0V40.6z M273.5,35.7H270v3.5h3.5L273.5,35.7z M115.4,0
	v104.8h34.3V67.4h41.8V41.3h-41.8V30.5h55.4V0H115.4z"/>
</svg>
