<svg xmlns="http://www.w3.org/2000/svg" xmlns:xlink="http://www.w3.org/1999/xlink" width="53" height="53" viewBox="0 0 53 53">
  <defs>
    <clipPath id="clip-path">
      <rect id="Rectangle_139" data-name="Rectangle 139" width="53" height="53" transform="translate(0 0)" fill="#fff"/>
    </clipPath>
  </defs>
  <g id="Group_101" data-name="Group 101" transform="translate(-0.48 -0.478)">
    <g id="Group_101-2" data-name="Group 101" transform="translate(0.48 0.478)" clip-path="url(#clip-path)">
      <path id="Path_1215" data-name="Path 1215" d="M1.279,28.129A1.279,1.279,0,0,1,0,26.851V2.557A2.559,2.559,0,0,1,2.557,0H25.572a2.56,2.56,0,0,1,2.557,2.557v17.9a2.56,2.56,0,0,1-2.557,2.557H6.922l-4.74,4.74a1.278,1.278,0,0,1-.9.375ZM25.571,2.556l-23.015,0V23.764l2.932-2.932a1.278,1.278,0,0,1,.9-.375H25.571Z" transform="translate(-0.397 -0.395)" fill="#fff"/>
      <path id="Path_1216" data-name="Path 1216" d="M260.177,261.463a1.278,1.278,0,0,1-.9-.375l-4.74-4.74H235.883a2.56,2.56,0,0,1-2.557-2.557v-17.9a2.561,2.561,0,0,1,2.557-2.557H258.9a2.56,2.56,0,0,1,2.557,2.557v24.292a1.279,1.279,0,0,1-1.279,1.279Zm-24.292-25.571v17.9h19.179a1.278,1.278,0,0,1,.9.375L258.9,257.1V235.891Z" transform="translate(-208.152 -208.157)" fill="#fff"/>
      <path id="Path_1217" data-name="Path 1217" d="M82.941,80.227a1.278,1.278,0,0,1-.179-2.544,7.833,7.833,0,0,0,4.391-2.2,7.744,7.744,0,0,0,1.837-2.932H82.943a1.279,1.279,0,0,1,0-2.557h7.672a1.278,1.278,0,0,1,1.266,1.459,10.318,10.318,0,0,1-8.756,8.757,1.171,1.171,0,0,1-.183.013Z" transform="translate(-73.111 -62.722)" fill="#fff"/>
      <path id="Path_1218" data-name="Path 1218" d="M117.942,51.78a1.278,1.278,0,0,1-1.278-1.278V47.944a1.279,1.279,0,0,1,2.557,0V50.5a1.278,1.278,0,0,1-1.279,1.278Z" transform="translate(-104.276 -41.947)" fill="#fff"/>
      <path id="Path_1219" data-name="Path 1219" d="M112.664,111.386c-.033,0-.067,0-.1,0h0a9.619,9.619,0,0,1-7.371-4.423,1.279,1.279,0,0,1,2.156-1.376,7.054,7.054,0,0,0,5.415,3.249,1.278,1.278,0,0,1-.1,2.553Z" transform="translate(-93.881 -93.881)" fill="#fff"/>
      <path id="Path_1220" data-name="Path 1220" d="M304.61,292.784a1.279,1.279,0,0,1-1.143-1.851l5.115-10.229a1.279,1.279,0,1,1,2.287,1.144l-5.114,10.229h0a1.279,1.279,0,0,1-1.145.707Z" transform="translate(-270.486 -249.706)" fill="#fff"/>
      <path id="Path_1221" data-name="Path 1221" d="M356.387,292.784a1.278,1.278,0,0,1-1.145-.707l-5.115-10.229a1.279,1.279,0,1,1,2.287-1.144l5.115,10.229a1.279,1.279,0,0,1-1.143,1.851Z" transform="translate(-312.033 -249.707)" fill="#fff"/>
      <path id="Path_1222" data-name="Path 1222" d="M319.539,340.5h-8.907a1.279,1.279,0,1,1,0-2.557h8.907a1.279,1.279,0,1,1,0,2.557Z" transform="translate(-275.847 -301.303)" fill="#fff"/>
      <path id="Path_1223" data-name="Path 1223" d="M71.281,238.576a1.279,1.279,0,0,1-.9-2.182l2.557-2.557h0a1.279,1.279,0,0,1,1.808,1.808L72.186,238.2h0A1.274,1.274,0,0,1,71.281,238.576Z" transform="translate(-62.728 -208.285)" fill="#fff"/>
      <path id="Path_1224" data-name="Path 1224" d="M97.293,238.576a1.274,1.274,0,0,1-.9-.375l-2.557-2.557h0a1.279,1.279,0,0,1,1.808-1.808l2.557,2.557h0a1.279,1.279,0,0,1-.9,2.182Z" transform="translate(-83.627 -208.285)" fill="#fff"/>
      <path id="Path_1225" data-name="Path 1225" d="M104.835,248.673h-8.95a2.56,2.56,0,0,1-2.557-2.557V234.609a1.279,1.279,0,0,1,2.557,0v11.507h8.95a1.279,1.279,0,1,1,0,2.557Z" transform="translate(-83.497 -208.154)" fill="#fff"/>
      <path id="Path_1226" data-name="Path 1226" d="M374.612,168.576a1.279,1.279,0,0,1-.9-2.182l2.557-2.557a1.279,1.279,0,0,1,1.808,1.808l-2.557,2.557a1.275,1.275,0,0,1-.9.375Z" transform="translate(-332.816 -145.956)" fill="#fff"/>
      <path id="Path_1227" data-name="Path 1227" d="M353.961,168.577a1.276,1.276,0,0,1-.9-.375l-2.557-2.557a1.279,1.279,0,0,1,1.808-1.808l2.557,2.557a1.279,1.279,0,0,1-.9,2.183Z" transform="translate(-312.164 -145.957)" fill="#fff"/>
      <path id="Path_1228" data-name="Path 1228" d="M291.505,85.343a1.279,1.279,0,0,1-1.279-1.279V72.557h-8.95a1.279,1.279,0,1,1,0-2.557h8.95a2.56,2.56,0,0,1,2.557,2.557V84.064a1.279,1.279,0,0,1-1.279,1.279Z" transform="translate(-249.709 -62.723)" fill="#fff"/>
    </g>
  </g>
</svg>
