<svg id="Group_103" data-name="Group 103" xmlns="http://www.w3.org/2000/svg" xmlns:xlink="http://www.w3.org/1999/xlink" width="39.218" height="39.062" viewBox="0 0 39.218 39.062">
  <defs>
    <clipPath id="clip-path">
      <rect id="Rectangle_140" data-name="Rectangle 140" width="39.218" height="39.062" fill="#fff"/>
    </clipPath>
  </defs>
  <g id="Group_102" data-name="Group 102" clip-path="url(#clip-path)">
    <path id="Path_1229" data-name="Path 1229" d="M3.866,39.062a3.9,3.9,0,0,1-1.747-.414A3.828,3.828,0,0,1,0,35.2V6.724A6.731,6.731,0,0,1,6.724,0H32.494a6.729,6.729,0,0,1,4.74,1.948,6.486,6.486,0,0,1,1.983,4.647V27.211a6.731,6.731,0,0,1-6.724,6.724H11.775l-5.5,4.305-.026.019a3.965,3.965,0,0,1-2.381.8M6.724,3.139A3.589,3.589,0,0,0,3.139,6.724V35.2a.671.671,0,0,0,.384.64.779.779,0,0,0,.831-.084l5.912-4.627a1.569,1.569,0,0,1,.967-.333H32.495a3.589,3.589,0,0,0,3.585-3.585V6.595a3.57,3.57,0,0,0-3.585-3.456Z" fill="#fff"/>
    <path id="Path_1230" data-name="Path 1230" d="M126.343,117.776a1.564,1.564,0,0,1-1.11-.46l-3.866-3.865a1.569,1.569,0,0,1,2.219-2.219l2.756,2.756,6.622-6.622a1.569,1.569,0,0,1,2.219,2.219l-7.731,7.731a1.564,1.564,0,0,1-1.11.46" transform="translate(-108.666 -96.083)" fill="#fff"/>
  </g>
</svg>
