<svg id="Group_84" data-name="Group 84" xmlns="http://www.w3.org/2000/svg" xmlns:xlink="http://www.w3.org/1999/xlink" width="53.644" height="53.128" viewBox="0 0 53.644 53.128">
  <defs>
    <clipPath id="clip-path">
      <rect id="Rectangle_118" data-name="Rectangle 118" width="53.644" height="53.128" fill="#fff"/>
    </clipPath>
  </defs>
  <g id="Group_24" data-name="Group 24" clip-path="url(#clip-path)">
    <path id="Path_547" data-name="Path 547" d="M48.08,16.738H33.266V5.543A5.571,5.571,0,0,0,27.706,0H5.565A5.57,5.57,0,0,0,0,5.543V23.664a5.57,5.57,0,0,0,5.565,5.565H7.949V35.01a1.354,1.354,0,0,0,2.314.959l6.752-6.741H20.38v11.2a5.57,5.57,0,0,0,5.565,5.565H36.63l6.752,6.741a1.354,1.354,0,0,0,2.313-.959V45.989h2.384a5.57,5.57,0,0,0,5.565-5.565V22.3a5.57,5.57,0,0,0-5.565-5.565ZM16.451,26.492h0a1.356,1.356,0,0,0-.959.4l-4.834,4.828V27.873A1.355,1.355,0,0,0,9.3,26.519H5.565A2.861,2.861,0,0,1,2.71,23.663V5.543A2.855,2.855,0,0,1,5.565,2.709H27.706a2.855,2.855,0,0,1,2.856,2.856V16.738H25.939a5.559,5.559,0,0,0-4.714,2.628,9.83,9.83,0,0,1-2.271-.878,10.707,10.707,0,0,0,2.9-6.957H23.48a1.355,1.355,0,0,0,0-2.709H17.99V6.729a1.355,1.355,0,0,0-2.709,0V8.821H9.8a1.355,1.355,0,0,0,0,2.709h9.347a8.052,8.052,0,0,1-2.373,5.332A8.315,8.315,0,0,1,14.9,13.93a1.355,1.355,0,1,0-2.536.948A11,11,0,0,0,14.6,18.488a9.749,9.749,0,0,1-2.27.878L11.4,19.6h0a1.355,1.355,0,1,0,.623,2.617l.932-.233a12.4,12.4,0,0,0,3.793-1.663,12.424,12.424,0,0,0,3.63,1.625v4.573ZM50.935,40.423a2.856,2.856,0,0,1-2.856,2.856H44.341a1.355,1.355,0,0,0-1.355,1.355V48.5l-4.839-4.828a1.355,1.355,0,0,0-.959-.4H25.944a2.862,2.862,0,0,1-2.856-2.856V22.3a2.855,2.855,0,0,1,2.856-2.856H48.08A2.855,2.855,0,0,1,50.935,22.3Z" fill="#fff"/>
    <path id="Path_548" data-name="Path 548" d="M371.188,309.24a1.355,1.355,0,1,1-1.355-1.355,1.355,1.355,0,0,1,1.355,1.355" transform="translate(-332.824 -278.094)" fill="#fff"/>
    <path id="Path_549" data-name="Path 549" d="M311.1,309.24a1.355,1.355,0,1,1-1.355-1.355,1.355,1.355,0,0,1,1.355,1.355" transform="translate(-278.549 -278.094)" fill="#fff"/>
    <path id="Path_550" data-name="Path 550" d="M431.278,309.24a1.355,1.355,0,1,1-1.355-1.355,1.355,1.355,0,0,1,1.355,1.355" transform="translate(-387.1 -278.094)" fill="#fff"/>
  </g>
</svg>
