<svg xmlns="http://www.w3.org/2000/svg" width="31.931" height="31.931" viewBox="0 0 31.931 31.931">
  <path id="Path_1937" data-name="Path 1937" d="M15.965,0h0A15.965,15.965,0,1,0,31.931,15.965h0A15.965,15.965,0,0,0,15.965,0m8.156,12.354c.008.181.013.362.013.544A11.968,11.968,0,0,1,5.709,22.982a8.489,8.489,0,0,0,6.23-1.743,4.212,4.212,0,0,1-3.931-2.922,4.232,4.232,0,0,0,1.9-.073,4.212,4.212,0,0,1-3.376-4.127c0-.017,0-.035,0-.054a4.182,4.182,0,0,0,1.906.527,4.213,4.213,0,0,1-1.3-5.619,11.945,11.945,0,0,0,8.674,4.4,4.211,4.211,0,0,1,7.171-3.839A8.411,8.411,0,0,0,25.655,8.51a4.222,4.222,0,0,1-1.85,2.328,8.412,8.412,0,0,0,2.417-.662,8.555,8.555,0,0,1-2.1,2.178" fill="#27315a" opacity="0.995"/>
</svg>
