<svg xmlns="http://www.w3.org/2000/svg" width="14.12" height="11.475" viewBox="0 0 14.12 11.475">
  <path id="iconmonstr-twitter-1" d="M14.12,3.606a5.784,5.784,0,0,1-1.664.456,2.9,2.9,0,0,0,1.274-1.6,5.8,5.8,0,0,1-1.84.7A2.9,2.9,0,0,0,6.953,5.8,8.224,8.224,0,0,1,.983,2.778a2.9,2.9,0,0,0,.9,3.868A2.884,2.884,0,0,1,.568,6.283,2.9,2.9,0,0,0,2.891,9.16a2.9,2.9,0,0,1-1.308.049,2.9,2.9,0,0,0,2.706,2.011A5.824,5.824,0,0,1,0,12.421a8.2,8.2,0,0,0,4.441,1.3,8.193,8.193,0,0,0,8.234-8.617,5.9,5.9,0,0,0,1.445-1.5Z" transform="translate(0 -2.248)" fill="#fff"/>
</svg>
